<?xml version="1.0" encoding="UTF-8"?>
<svg width="248px" height="36px" viewBox="0 0 248 36" version="1.1" xmlns="http://www.w3.org/2000/svg" xmlns:xlink="http://www.w3.org/1999/xlink">
    <!-- Generator: Sketch 51.3 (57544) - http://www.bohemiancoding.com/sketch -->
    <title>Group 17</title>
    <desc>Created with Sketch.</desc>
    <defs>
        <polygon id="path-1" points="0 35.45037 247.271331 35.45037 247.271331 0.00027 0 0.00027"></polygon>
    </defs>
    <g id="Page-1" stroke="none" stroke-width="1" fill="none" fill-rule="evenodd">
        <g id="Elements" transform="translate(-499.000000, -2923.000000)">
            <g id="Group-17" transform="translate(499.000000, 2923.000000)">
                <path d="M169.425754,20.92356 C169.425754,21.19086 169.285071,21.44106 169.003703,21.67596 C168.725041,21.91086 168.368823,22.11156 167.931441,22.27986 C167.496765,22.44456 167.020605,22.58046 166.506569,22.67946 C165.994336,22.78026 165.501943,22.82886 165.032096,22.82886 L158.493914,22.82886 C157.910438,22.82886 157.330569,22.78026 156.749798,22.67946 C156.167223,22.58046 155.64958,22.44456 155.189652,22.27986 C154.730627,22.11156 154.361783,21.91086 154.08222,21.67596 C153.801754,21.44106 153.663776,21.19086 153.663776,20.92356 L153.663776,14.36436 C153.663776,14.07276 153.801754,13.80726 154.08222,13.55976 C154.361783,13.31496 154.730627,13.09806 155.189652,12.90816 C155.64958,12.71826 156.156401,12.56796 156.714627,12.45456 C157.272852,12.34296 157.840998,12.28806 158.42718,12.28806 L165.032096,12.28806 C165.635412,12.28806 166.208067,12.33396 166.742845,12.42306 C167.278525,12.51306 167.741158,12.62916 168.132547,12.77406 C168.523936,12.91896 168.838671,13.10346 169.072241,13.32666 C169.308518,13.55076 169.425754,13.79286 169.425754,14.06196 L169.425754,20.92356 Z M174.655398,14.12676 C174.655398,9.86796 171.482801,7.73676 165.1331,7.73676 L158.390205,7.73676 C156.959921,7.73676 155.643267,7.88706 154.433929,8.19036 C153.227296,8.49006 152.184794,8.92116 151.297405,9.47826 C150.419034,10.03536 149.730045,10.71666 149.234947,11.51946 C148.744358,12.32226 148.498161,13.21686 148.498161,14.19606 L148.498161,21.12426 C148.498161,22.10706 148.739849,22.98006 149.218714,23.74956 C149.701187,24.52086 150.379354,25.17426 151.251412,25.70796 C152.121667,26.24346 153.164169,26.65566 154.385231,26.94636 C155.601783,27.23976 156.93918,27.38466 158.390205,27.38466 L165.1331,27.38466 C166.585929,27.38466 167.898074,27.24336 169.072241,26.96526 C170.247311,26.68446 171.246525,26.27586 172.074394,25.74126 C172.902263,25.20846 173.539849,24.55506 173.986249,23.78556 C174.432649,23.01426 174.655398,22.12776 174.655398,21.12426 L174.655398,14.12676 Z" id="Fill-1" fill="#FFFFFF"></path>
                <path d="M215.766764,7.90344 L210.0312,7.90344 L203.725687,20.52234 L198.193935,9.94554 C197.881004,9.38934 197.478793,8.97534 196.985498,8.70714 C196.495811,8.44074 195.957425,8.30574 195.377556,8.30574 C194.056393,8.30574 193.120305,8.85384 192.56208,9.94554 L187.02672,20.52234 L180.755476,7.90344 L175.088451,7.90344 L182.937876,24.00264 C183.271549,24.71724 183.561033,25.30224 183.809033,25.76034 C184.055229,26.21664 184.31856,26.57934 184.59632,26.84844 C184.877687,27.11574 185.193324,27.29844 185.553149,27.39924 C185.909367,27.49824 186.357571,27.54954 186.894153,27.54954 C188.324436,27.54954 189.30832,27.02484 189.844902,25.97724 L195.377556,15.36714 L200.811011,25.94304 C201.076145,26.45784 201.445891,26.84214 201.918444,27.09684 C202.386487,27.35514 202.988902,27.48294 203.725687,27.48294 C205.157775,27.48294 206.143462,26.95644 206.679142,25.91064 L215.766764,7.90344 Z" id="Fill-3" fill="#FFFFFF"></path>
                <path d="M125.128355,7.90344 L118.971642,7.90344 C118.971642,7.90344 120.951133,11.97864 120.951133,17.55144 C120.951133,23.12334 118.971642,27.38484 118.971642,27.38484 L125.128355,27.38484 L125.128355,13.94784 C125.128355,13.34934 126.027468,12.88584 126.417955,12.74184 C126.810246,12.59514 127.262057,12.48354 127.777897,12.40704 C128.292835,12.32874 128.850159,12.28824 129.45618,12.28824 L136.429039,12.28824 C137.056704,12.28824 137.642886,12.32874 138.191191,12.40704 C138.736791,12.48354 139.212049,12.59064 139.61426,12.72294 C140.016471,12.85884 140.336617,13.02084 140.571089,13.20894 C140.806464,13.39794 140.924602,13.60584 140.924602,13.82724 L140.924602,27.19584 L146.120879,27.19584 L146.120879,13.49424 C146.120879,9.65664 142.88786,7.73604 136.429039,7.73604 L129.788951,7.73604 C126.193402,7.73604 124.837969,9.47574 125.128355,10.14624 L125.128355,7.90344 Z" id="Fill-5" fill="#FFFFFF"></path>
                <mask id="mask-2" fill="white">
                    <use xlink:href="#path-1"></use>
                </mask>
                <g id="Clip-8"></g>
                <polygon id="Fill-7" fill="#FFFFFF" mask="url(#mask-2)" points="218.010938 27.38457 223.173847 27.38457 223.173847 7.90317 218.010938 7.90317"></polygon>
                <path d="M231.458761,13.56183 C231.740128,13.31523 232.10807,13.09743 232.566193,12.90753 C233.024317,12.71853 233.532041,12.56823 234.093873,12.45483 C234.650295,12.34323 235.220244,12.28833 235.801015,12.28833 L247.271241,12.28833 L247.271241,7.73613 L235.766746,7.73613 C234.335561,7.73613 233.018906,7.88823 231.809568,8.18703 C230.604739,8.49033 229.560433,8.92143 228.677553,9.47853 C227.793772,10.03653 227.107488,10.71693 226.61239,11.51883 C226.120899,12.32253 225.876506,13.21623 225.876506,14.19633 L225.876506,21.12363 C225.876506,22.10733 226.113684,22.98033 226.597059,23.75073 C227.079532,24.52113 227.754993,25.17363 228.625248,25.70823 C229.497306,26.24373 230.542513,26.65593 231.762673,26.94663 C232.980128,27.23463 234.316623,27.38403 235.766746,27.38403 L247.271241,27.38403 L247.271241,22.83183 L235.868652,22.83183 C235.286979,22.83183 234.705306,22.77963 234.126339,22.67973 C233.543764,22.58073 233.024317,22.44483 232.566193,22.28013 C232.10807,22.11003 231.740128,21.91023 231.458761,21.67623 C231.179197,21.44133 231.039415,21.19113 231.039415,20.92383 L231.039415,19.57833 L247.271241,19.57833 L247.271241,15.54273 L231.039415,15.54273 L231.039415,14.36463 C231.039415,14.07573 231.179197,13.80663 231.458761,13.56183" id="Fill-9" fill="#FFFFFF" mask="url(#mask-2)"></path>
                <path d="M11.8709033,13.28058 C11.8709033,15.18228 11.2242996,16.64208 9.92748509,17.65458 C8.633376,18.66888 6.798176,19.17648 4.42549236,19.17648 L1.37734691,19.17648 L1.37734691,27.30618 L0.000270545455,27.30618 L0.000270545455,7.62678 L4.82860509,7.62678 C9.52256873,7.62678 11.8709033,9.51138 11.8709033,13.28058 Z M1.37734691,17.99208 L4.08821236,17.99208 C6.30758691,17.99208 7.91192145,17.62578 8.90211782,16.89588 C9.89231418,16.16148 10.3865105,14.97618 10.3865105,13.33548 C10.3865105,11.81898 9.91756509,10.69218 8.98418327,9.96048 C8.048096,9.23058 6.60067782,8.86428 4.64012509,8.86428 L1.37734691,8.86428 L1.37734691,17.99208 Z" id="Fill-10" fill="#FFFFFF" mask="url(#mask-2)"></path>
                <path d="M32.7369018,17.44038 C32.7369018,20.56248 31.9541236,23.03208 30.3903709,24.85008 C28.8257164,26.66718 26.6667636,27.57528 23.9144145,27.57528 C21.1719855,27.57528 19.0184436,26.66718 17.4537891,24.85008 C15.8900364,23.03208 15.1090618,20.55438 15.1090618,17.41338 C15.1090618,14.28228 15.8972509,11.81538 17.4745309,10.01448 C19.0527127,8.21628 21.2080582,7.31628 23.9432727,7.31628 C26.69472,7.31628 28.8482618,8.22168 30.4038982,10.02888 C31.9586327,11.83698 32.7369018,14.30838 32.7369018,17.44038 M16.6033745,17.44038 C16.6033745,20.25828 17.2337455,22.43538 18.4926836,23.97528 C19.7525236,25.51428 21.5597673,26.28468 23.9144145,26.28468 C26.2889018,26.28468 28.1015564,25.52148 29.3577891,23.99508 C30.6140218,22.46958 31.2407855,20.28528 31.2407855,17.44038 C31.2407855,14.60448 30.6140218,12.42918 29.3577891,10.91808 C28.1015564,9.40608 26.29792,8.64828 23.9432727,8.64828 C21.5949382,8.64828 19.7849891,9.41238 18.5143273,10.93698 C17.2400582,12.46248 16.6033745,14.62968 16.6033745,17.44038" id="Fill-11" fill="#FFFFFF" mask="url(#mask-2)"></path>
                <polygon id="Fill-12" fill="#FFFFFF" mask="url(#mask-2)" points="50.5284218 27.30618 48.8420218 27.30618 41.2739636 16.91388 38.6451636 19.22958 38.6451636 27.30618 37.2689891 27.30618 37.2689891 7.62678 38.6451636 7.62678 38.6451636 17.85798 40.8293673 15.67638 48.5606545 7.62678 50.3137891 7.62678 42.2325964 15.94458"></polygon>
                <polygon id="Fill-13" fill="#FFFFFF" mask="url(#mask-2)" points="64.0988015 27.30618 53.3202705 27.30618 53.3202705 7.62678 64.0988015 7.62678 64.0988015 8.89038 54.6964451 8.89038 54.6964451 16.33518 63.570336 16.33518 63.570336 17.60148 54.6964451 17.60148 54.6964451 26.04168 64.0988015 26.04168"></polygon>
                <path d="M69.9373527,18.73062 L69.9373527,27.30582 L68.5629818,27.30582 L68.5629818,7.62642 L73.2569455,7.62642 C75.7026764,7.62642 77.5108218,8.07552 78.6795782,8.98002 C79.8465309,9.88002 80.4327127,11.23902 80.4327127,13.04892 C80.4327127,14.36922 80.0837091,15.48342 79.3875055,16.38972 C78.6904,17.29512 77.6316655,17.94672 76.2113018,18.34272 L81.5672,27.30582 L79.92048,27.30582 L74.8333236,18.73062 L69.9373527,18.73062 Z M69.9373527,17.54712 L73.7015418,17.54712 C75.3653964,17.54712 76.6577018,17.17632 77.5721455,16.43562 C78.4901964,15.69582 78.94832,14.60412 78.94832,13.15962 C78.94832,11.65842 78.4974109,10.56942 77.6010036,9.88722 C76.7009891,9.20592 75.2346327,8.86392 73.2019345,8.86392 L69.9373527,8.86392 L69.9373527,17.54712 Z" id="Fill-14" fill="#FFFFFF" mask="url(#mask-2)"></path>
                <path d="M118.636346,17.72514 C118.636346,27.51444 110.684113,35.44974 100.875037,35.44974 C91.0659607,35.44974 83.113728,27.51444 83.113728,17.72514 C83.113728,7.93584 91.0659607,0.00054 100.875037,0.00054 C110.684113,0.00054 118.636346,7.93584 118.636346,17.72514" id="Fill-15" fill="#00BC00" mask="url(#mask-2)"></path>
                <path d="M100.299677,4.92129 C98.1605644,4.92129 96.3560262,5.61339 94.7841571,7.03449 C93.2339316,8.43759 92.4800116,10.11969 92.4800116,12.17529 C92.4800116,14.51889 93.2483607,16.41519 94.829248,17.97129 C96.4110371,19.52739 98.3742953,20.28519 100.830848,20.28519 C103.229684,20.28519 103.489408,21.87009 103.489408,22.55139 C103.489408,23.19939 103.277481,23.77089 102.859939,24.25149 C102.418048,24.75639 101.830063,25.02099 101.155503,25.02099 L84.6702662,24.97329 C85.5287971,26.91639 86.7561716,28.67769 88.2261353,30.17259 L95.5299607,30.17259 L101.890484,30.17259 C103.950237,30.17259 105.667299,29.41929 107.14087,27.87489 C108.621655,26.31699 109.341306,24.54849 109.341306,22.46949 C109.341306,20.35179 108.618048,18.63909 107.128244,17.23689 C105.626717,15.82209 103.752739,15.13449 101.401699,15.13449 C100.465612,15.13449 99.6476625,14.95269 98.9722007,14.59539 C98.4022516,14.29299 97.7231825,13.64859 97.7231825,12.29319 L97.7231825,12.24909 L97.7285935,12.20409 C97.8304989,11.36889 98.2471389,10.94589 98.5781062,10.73979 C98.985728,10.48509 99.481728,10.35639 100.054383,10.35639 L110.19623,10.35639 L113.163212,4.92129 L100.299677,4.92129 Z" id="Fill-16" fill="#FFFFFF" mask="url(#mask-2)"></path>
            </g>
        </g>
    </g>
</svg>